<svg width="14" height="14" viewBox="0 0 14 14" fill="none" xmlns="http://www.w3.org/2000/svg">
<path d="M13.6667 13.6667L11 11H4.33334C3.96668 11 3.65279 10.8695 3.39168 10.6083C3.13057 10.3472 3.00001 10.0333 3.00001 9.66668V9.00001H10.3333C10.7 9.00001 11.0139 8.86945 11.275 8.60834C11.5361 8.34723 11.6667 8.03334 11.6667 7.66668V3.00001H12.3333C12.7 3.00001 13.0139 3.13057 13.275 3.39168C13.5361 3.65279 13.6667 3.96668 13.6667 4.33334V13.6667ZM1.66668 7.11668L2.45001 6.33334H9.00001V1.66668H1.66668V7.11668ZM0.333344 10.3333V1.66668C0.333344 1.30001 0.463899 0.986121 0.72501 0.72501C0.986121 0.463899 1.30001 0.333344 1.66668 0.333344H9.00001C9.36668 0.333344 9.68057 0.463899 9.94168 0.72501C10.2028 0.986121 10.3333 1.30001 10.3333 1.66668V6.33334C10.3333 6.70001 10.2028 7.0139 9.94168 7.27501C9.68057 7.53612 9.36668 7.66668 9.00001 7.66668H3.00001L0.333344 10.3333Z" fill="#454343" fill-opacity="0.99"/>
</svg>
