<svg width="14" height="12" viewBox="0 0 14 12" fill="currentColor" xmlns="http://www.w3.org/2000/svg">
<path d="M2.33332 12C1.76666 12 1.36388 11.7472 1.12499 11.2417C0.886102 10.7361 0.944435 10.2667 1.29999 9.83333L4.99999 5.33333V1.33333H4.33332C4.14444 1.33333 3.9861 1.26944 3.85832 1.14167C3.73055 1.01389 3.66666 0.855556 3.66666 0.666667C3.66666 0.477778 3.73055 0.319444 3.85832 0.191667C3.9861 0.0638889 4.14444 0 4.33332 0H9.66666C9.85555 0 10.0139 0.0638889 10.1417 0.191667C10.2694 0.319444 10.3333 0.477778 10.3333 0.666667C10.3333 0.855556 10.2694 1.01389 10.1417 1.14167C10.0139 1.26944 9.85555 1.33333 9.66666 1.33333H8.99999V5.33333L12.7 9.83333C13.0555 10.2667 13.1139 10.7361 12.875 11.2417C12.6361 11.7472 12.2333 12 11.6667 12H2.33332ZM3.66666 10H10.3333L8.06666 7.33333H5.93332L3.66666 10ZM2.33332 10.6667H11.6667L7.66666 5.8V1.33333H6.33332V5.8L2.33332 10.6667Z" fill="rgba(43, 34, 61, 0.80)"/>
</svg>
