<svg  viewBox="0 0 39 39" fill="none" xmlns="http://www.w3.org/2000/svg">
<path d="M38.25 38.25L30.75 30.75H12C10.9688 30.75 10.0859 30.3828 9.35156 29.6484C8.61719 28.9141 8.25 28.0312 8.25 27V25.125H28.875C29.9062 25.125 30.7891 24.7578 31.5234 24.0234C32.2578 23.2891 32.625 22.4062 32.625 21.375V8.25H34.5C35.5312 8.25 36.4141 8.61719 37.1484 9.35156C37.8828 10.0859 38.25 10.9688 38.25 12V38.25ZM4.5 19.8281L6.70312 17.625H25.125V4.5H4.5V19.8281ZM0.75 28.875V4.5C0.75 3.46875 1.11719 2.58594 1.85156 1.85156C2.58594 1.11719 3.46875 0.75 4.5 0.75H25.125C26.1562 0.75 27.0391 1.11719 27.7734 1.85156C28.5078 2.58594 28.875 3.46875 28.875 4.5V17.625C28.875 18.6562 28.5078 19.5391 27.7734 20.2734C27.0391 21.0078 26.1562 21.375 25.125 21.375H8.25L0.75 28.875Z" fill="currentColor"/>
</svg>
