<svg viewBox="0 0 20 20" fill="currentColor" xmlns="http://www.w3.org/2000/svg">
<mask id="mask0_46_322" style="mask-type:alpha" maskUnits="userSpaceOnUse" x="0" y="0" width="20" height="20">
<rect width="20" height="20" fill="currentColor"/>
</mask>
<g mask="url(#mask0_46_322)">
<path d="M6.66667 10.8334H13.3333V9.16669H6.66667V10.8334ZM6.66667 13.3334H13.3333V11.6667H6.66667V13.3334ZM6.66667 15.8334H10.8333V14.1667H6.66667V15.8334ZM5 18.3334C4.54167 18.3334 4.1493 18.1702 3.82292 17.8438C3.49653 17.5174 3.33333 17.125 3.33333 16.6667V3.33335C3.33333 2.87502 3.49653 2.48266 3.82292 2.15627C4.1493 1.82988 4.54167 1.66669 5 1.66669H11.6667L16.6667 6.66669V16.6667C16.6667 17.125 16.5035 17.5174 16.1771 17.8438C15.8507 18.1702 15.4583 18.3334 15 18.3334H5ZM10.8333 7.50002V3.33335H5V16.6667H15V7.50002H10.8333Z" fill="white"/>
</g>
</svg>
