<svg version="1.0" xmlns="http://www.w3.org/2000/svg"
  viewBox="0 0 78.000000 72.000000"
 preserveAspectRatio="xMidYMid meet">

<g transform="translate(0.000000,72.000000) scale(0.100000,-0.100000)"
fill="#f5f4f4" stroke="none">
<path d="M182 421 c-94 -165 -173 -304 -174 -309 -2 -5 10 -33 27 -61 l29 -51
327 0 327 0 32 51 c17 28 29 56 27 63 -3 6 -59 105 -125 220 l-121 209 -26
-54 -27 -55 90 -154 90 -155 -261 -3 c-143 -1 -262 0 -265 2 -2 3 47 94 110
203 170 293 160 271 156 333 -3 47 -6 55 -23 58 -18 2 -48 -45 -193 -297z"/>
<path d="M420 646 c0 -64 -1 -65 -120 -272 -67 -114 -119 -213 -116 -221 4
-10 48 -13 206 -13 230 0 230 0 183 77 l-30 48 -96 3 c-53 1 -97 4 -97 6 0 2
38 68 85 147 l84 143 -31 55 c-47 84 -52 91 -60 91 -5 0 -8 -29 -8 -64z"/>
</g>
</svg>
