<svg viewBox="0 0 35 35" fill="none" xmlns="http://www.w3.org/2000/svg">
<path d="M11.875 34.375H4.375C3.34375 34.375 2.46094 34.0078 1.72656 33.2734C0.992188 32.5391 0.625 31.6562 0.625 30.625V17.5C0.625 15.1562 1.07031 12.9609 1.96094 10.9141C2.85156 8.86719 4.05469 7.08594 5.57031 5.57031C7.08594 4.05469 8.86719 2.85156 10.9141 1.96094C12.9609 1.07031 15.1562 0.625 17.5 0.625C19.8438 0.625 22.0391 1.07031 24.0859 1.96094C26.1328 2.85156 27.9141 4.05469 29.4297 5.57031C30.9453 7.08594 32.1484 8.86719 33.0391 10.9141C33.9297 12.9609 34.375 15.1562 34.375 17.5V30.625C34.375 31.6562 34.0078 32.5391 33.2734 33.2734C32.5391 34.0078 31.6562 34.375 30.625 34.375H23.125V19.375H30.625V17.5C30.625 13.8438 29.3516 10.7422 26.8047 8.19531C24.2578 5.64844 21.1562 4.375 17.5 4.375C13.8438 4.375 10.7422 5.64844 8.19531 8.19531C5.64844 10.7422 4.375 13.8438 4.375 17.5V19.375H11.875V34.375ZM8.125 23.125H4.375V30.625H8.125V23.125ZM26.875 23.125V30.625H30.625V23.125H26.875Z" fill="currentColor"/>
</svg>
